<svg id="visual" viewBox="0 0 900 600" width="900" height="600" xmlns="http://www.w3.org/2000/svg" xmlns:xlink="http://www.w3.org/1999/xlink" version="1.1"><path d="M0 411L21.5 429.3C43 447.7 86 484.3 128.8 485C171.7 485.7 214.3 450.3 257.2 446.5C300 442.7 343 470.3 385.8 484.3C428.7 498.3 471.3 498.7 514.2 487.2C557 475.7 600 452.3 642.8 442C685.7 431.7 728.3 434.3 771.2 428.7C814 423 857 409 878.5 402L900 395L900 601L878.5 601C857 601 814 601 771.2 601C728.3 601 685.7 601 642.8 601C600 601 557 601 514.2 601C471.3 601 428.7 601 385.8 601C343 601 300 601 257.2 601C214.3 601 171.7 601 128.8 601C86 601 43 601 21.5 601L0 601Z" fill="#CDB4DB" stroke-linecap="round" stroke-linejoin="miter"></path></svg>